/* XPM */
static char * icon32x16b_xpm[] = {
"32 32 316 2",
"  	c None",
". 	c #949997",
"+ 	c #A5AAA7",
"@ 	c #ACB1AF",
"# 	c #ABAEAD",
"$ 	c #A7ABAC",
"% 	c #9EA3A1",
"& 	c #818586",
"* 	c #959B9A",
"= 	c #B1B8B6",
"- 	c #CACFCE",
"; 	c #DAE0DE",
"> 	c #DEE4E4",
", 	c #E5EAEA",
"' 	c #E7EDEB",
") 	c #E9EEEF",
"! 	c #EDF2F2",
"~ 	c #E9EEEE",
"{ 	c #D5DADA",
"] 	c #C7CDCA",
"^ 	c #8D9392",
"/ 	c #A3A9A8",
"( 	c #BBC2C2",
"_ 	c #C8D0D0",
": 	c #C8CECF",
"< 	c #C8CECE",
"[ 	c #CAD0D0",
"} 	c #D3D8D8",
"| 	c #D4DADA",
"1 	c #D7DDDD",
"2 	c #DEE3E3",
"3 	c #E4E8E8",
"4 	c #EFF2F3",
"5 	c #F2F5F5",
"6 	c #F4F7F6",
"7 	c #E8EAE9",
"8 	c #B3B5B4",
"9 	c #B3AEA7",
"0 	c #979F9F",
"a 	c #A8B0B0",
"b 	c #A9B1B1",
"c 	c #AAB2B3",
"d 	c #A7AFAF",
"e 	c #AEB4B3",
"f 	c #B0B5B4",
"g 	c #ABB1B0",
"h 	c #AFB5B4",
"i 	c #B3B9B7",
"j 	c #B4BAB8",
"k 	c #BCC2BE",
"l 	c #BCC1BD",
"m 	c #CACFCD",
"n 	c #DCE1E1",
"o 	c #EAEEED",
"p 	c #FBFCFC",
"q 	c #E8E8E7",
"r 	c #D4CEC6",
"s 	c #C0BBB7",
"t 	c #757C7B",
"u 	c #959E9D",
"v 	c #9AA3A3",
"w 	c #A0A8A8",
"x 	c #A9B1B0",
"y 	c #B3B7B7",
"z 	c #B9BCBC",
"A 	c #BABEBA",
"B 	c #DCE0DE",
"C 	c #F3F4F3",
"D 	c #F9FAFA",
"E 	c #E7E5E0",
"F 	c #E3E5E3",
"G 	c #A09993",
"H 	c #7A8082",
"I 	c #90999A",
"J 	c #979F9E",
"K 	c #9DA4A1",
"L 	c #B1B5B4",
"M 	c #DDDFDE",
"N 	c #F4F6F6",
"O 	c #F5F5F3",
"P 	c #DFD8D2",
"Q 	c #BBADA5",
"R 	c #727C78",
"S 	c #909697",
"T 	c #9BA2A1",
"U 	c #A6A9A8",
"V 	c #DCE0DF",
"W 	c #EFF3F2",
"X 	c #F1EFE9",
"Y 	c #DAD5D1",
"Z 	c #8A9190",
"` 	c #9DA4A4",
" .	c #B0B2B0",
"..	c #A3A9A6",
"+.	c #E5E9E7",
"@.	c #F1F3F1",
"#.	c #E3E2DD",
"$.	c #A7AEAE",
"%.	c #C0C3C2",
"&.	c #C1C5C4",
"*.	c #767C7C",
"=.	c #9CA2A3",
"-.	c #B7BDBB",
";.	c #CDD0CD",
">.	c #EBEFED",
",.	c #E2DFD9",
"'.	c #AFB6B6",
").	c #CBCFCD",
"!.	c #A5AAA8",
"~.	c #636967",
"{.	c #888D8C",
"].	c #ACB2B1",
"^.	c #CED2D1",
"/.	c #D5D8D5",
"(.	c #D8DAD8",
"_.	c #D9DBDA",
":.	c #DEDFDE",
"<.	c #E8EAE8",
"[.	c #DCDEDD",
"}.	c #E7E9E6",
"|.	c #E1E1D9",
"1.	c #C3CACA",
"2.	c #ACB2B0",
"3.	c #646868",
"4.	c #868888",
"5.	c #C4C7C6",
"6.	c #C3C8C7",
"7.	c #C6C9C7",
"8.	c #DBDDDA",
"9.	c #DFE1DF",
"0.	c #E3E7E4",
"a.	c #EAEEEC",
"b.	c #ECEEEC",
"c.	c #EBEDEB",
"d.	c #EAECEA",
"e.	c #EBECEB",
"f.	c #EFF1F0",
"g.	c #F2F4F3",
"h.	c #F3F5F3",
"i.	c #F3F5F1",
"j.	c #EDEFEB",
"k.	c #E3E2DE",
"l.	c #A6ACAD",
"m.	c #AEB5B5",
"n.	c #BEC6C6",
"o.	c #E1E5E5",
"p.	c #E2E5E4",
"q.	c #D1D5D4",
"r.	c #C9CDC9",
"s.	c #BCBFBC",
"t.	c #AEB2AE",
"u.	c #C8CAC7",
"v.	c #D6D8D5",
"w.	c #DEE1DE",
"x.	c #E4E6E4",
"y.	c #E6E9E6",
"z.	c #E7EAE7",
"A.	c #E4E7E4",
"B.	c #E2E4E1",
"C.	c #E5E8E6",
"D.	c #E9EBE8",
"E.	c #EBECE8",
"F.	c #E9EBE6",
"G.	c #EDEDEA",
"H.	c #ECECE8",
"I.	c #EEEEEA",
"J.	c #969C9B",
"K.	c #989F9E",
"L.	c #9FA6A6",
"M.	c #B6BBBC",
"N.	c #E5E9E8",
"O.	c #D7DBDA",
"P.	c #CFD1CE",
"Q.	c #DADCDA",
"R.	c #DFE0DE",
"S.	c #DFDFDD",
"T.	c #DCDEDB",
"U.	c #D7D9D7",
"V.	c #D7D8D5",
"W.	c #D8D9D7",
"X.	c #D4D7D4",
"Y.	c #D0D1CE",
"Z.	c #969D9B",
"`.	c #959C9A",
" +	c #959B9B",
".+	c #ABB0B2",
"++	c #CCD2D1",
"@+	c #C5C9C7",
"#+	c #C2C3C0",
"$+	c #C7C6C2",
"%+	c #CECECA",
"&+	c #848988",
"*+	c #9AA19F",
"=+	c #A2A9A7",
"-+	c #A2A8A8",
";+	c #C0C5C6",
">+	c #C3C8C6",
",+	c #C0C3C0",
"'+	c #BEC0BF",
")+	c #252726",
"!+	c #888E8C",
"~+	c #A5ABA9",
"{+	c #A4AAA9",
"]+	c #B3B9B8",
"^+	c #D5D9D8",
"/+	c #A5A7A2",
"(+	c #656866",
"_+	c #7F8281",
":+	c #010101",
"<+	c #292B2A",
"[+	c #929997",
"}+	c #A7AEAB",
"|+	c #A6ADAB",
"1+	c #C9CECC",
"2+	c #C5C7C6",
"3+	c #727473",
"4+	c #5D605F",
"5+	c #6B6E6C",
"6+	c #919290",
"7+	c #060606",
"8+	c #000000",
"9+	c #1D2220",
"0+	c #939997",
"a+	c #ABB2B0",
"b+	c #AFB5B3",
"c+	c #DCE1E0",
"d+	c #D8D9D9",
"e+	c #8C8D8D",
"f+	c #656968",
"g+	c #636765",
"h+	c #848786",
"i+	c #090908",
"j+	c #010001",
"k+	c #1D1E1E",
"l+	c #898C8A",
"m+	c #B0B6B3",
"n+	c #E2E5E5",
"o+	c #EAECEB",
"p+	c #ABAEAE",
"q+	c #707373",
"r+	c #636665",
"s+	c #7E807D",
"t+	c #040404",
"u+	c #121312",
"v+	c #676867",
"w+	c #ADB3B1",
"x+	c #B8BEBC",
"y+	c #D3D7D7",
"z+	c #F3F5F4",
"A+	c #CBCDCC",
"B+	c #838585",
"C+	c #6B6C69",
"D+	c #797975",
"E+	c #989995",
"F+	c #060707",
"G+	c #484D4C",
"H+	c #A4AAA8",
"I+	c #AEB4B2",
"J+	c #EFF1F1",
"K+	c #E2E3E3",
"L+	c #A2A2A0",
"M+	c #7C7D79",
"N+	c #82847F",
"O+	c #939691",
"P+	c #333635",
"Q+	c #7C817F",
"R+	c #E1E4E2",
"S+	c #EEEFEE",
"T+	c #B8B9B7",
"U+	c #838480",
"V+	c #81847E",
"W+	c #959693",
"X+	c #4B4F4D",
"Y+	c #969B99",
"Z+	c #B2B7B6",
"`+	c #CDD0CF",
" @	c #F0F0EF",
".@	c #D3D3D1",
"+@	c #9A9993",
"@@	c #7A7B76",
"#@	c #868984",
"$@	c #A8AAA7",
"%@	c #212221",
"&@	c #6C706E",
"*@	c #ABAFAD",
"=@	c #BBBEBD",
"-@	c #E6E7E7",
";@	c #E7E9E8",
">@	c #ADAAA6",
",@	c #8F8E87",
"'@	c #858682",
")@	c #ACACAA",
"!@	c #545755",
"~@	c #949694",
"{@	c #AEB1B0",
"]@	c #D8DADA",
"^@	c #EDEDED",
"/@	c #BDBDB9",
"(@	c #90918C",
"_@	c #8F918B",
":@	c #C1C4C0",
"<@	c #9D9F9E",
"[@	c #BDC0BF",
"}@	c #E6E7E6",
"|@	c #9E9F9B",
"1@	c #B1AFA7",
"2@	c #CDC5BC",
"3@	c #414342",
"4@	c #868988",
"5@	c #D2D5D4",
"6@	c #B6B3AD",
"7@	c #131010",
"8@	c #070707",
"9@	c #3D3F3E",
"0@	c #B9BDBD",
"a@	c #E3E5E2",
"                                                                ",
"                                                                ",
"                                . + @ # $ %                     ",
"                        & * = - ; > , ' ) ! ~ { ]               ",
"                    ^ / ( _ : < [ } | 1 2 3 4 5 6 7 8 9         ",
"                  0 a b c d e f g h i j k l m n o p q r s       ",
"              t u v w x y z                   A B C D E F G     ",
"            H I J K L                             M N O P Q     ",
"          R S T U                                   V W X Y     ",
"          Z `  .                                    ..+.@.#.    ",
"$.%.&.  *.=.-.                                        ;.>.,.    ",
"'.).!.~.{.].^.                            /.(._.:.F <.[.}.|.    ",
"1.2.3.4.5.6.7.              /.8.9.0.a.b.c.d.e.f.g.h.i.j.k.      ",
"l.m.n.o.p.q.r.s.t.u.v.w.x.y.z.A.B.C.D.E.F.G.H.I.                ",
"J.K.L.M.N.O.P.Q.R.S.T.U.V.W.X.Y.                                ",
"Z.`. +.+++@+#+$+%+                                              ",
"&+*+=+-+;+>+,+'+                                                ",
")+!+~+{+]+^+/+(+_+                                              ",
":+<+[+}+|+1+2+3+4+5+6+                                          ",
"7+8+9+0+a+b+c+d+e+f+g+h+                                        ",
"  i+j+k+l+m+i n+o+p+q+r+s+                                      ",
"      t+u+v+w+x+y+z+A+B+C+D+E+                                  ",
"          F+G+H+I+&.J+K+L+M+N+O+                                ",
"            8+P+Q+~+i R+S+T+U+V+W+                              ",
"                  X+Y+Z+`+ @.@+@@@#@$@                          ",
"                    %@&@*@=@-@;@>@,@'@)@                        ",
"                        !@~@{@]@^@/@(@_@:@                      ",
"                              <@[@}@.@|@1@2@                    ",
"                                3@4@5@}@6@                      ",
"                                7@8@9@0@a@                      ",
"                                                                ",
"                                                                "};
